<svg xmlns="http://www.w3.org/2000/svg" xmlns:xlink="http://www.w3.org/1999/xlink" width="231" zoomAndPan="magnify" viewBox="0 0 173.25 65.249999" height="87" preserveAspectRatio="xMidYMid meet" version="1.0"><defs><g/><clipPath id="092427114e"><path d="M 0.613281 0 L 171.894531 0 L 171.894531 64.507812 L 0.613281 64.507812 Z M 0.613281 0 " clip-rule="nonzero"/></clipPath></defs><g clip-path="url(#092427114e)"><path fill="#000000" d="M 0.613281 0 L 171.761719 0 L 171.761719 64.40625 L 0.613281 64.40625 Z M 0.613281 0 " fill-opacity="1" fill-rule="nonzero"/></g><g fill="#ff0000" fill-opacity="1"><g transform="translate(33.117952, 19.426994)"><g><path d="M 14.871094 -4.144531 L 17.308594 -6.582031 L 17.308594 -14.628906 L 14.871094 -17.066406 L 0.121094 -17.066406 L 0.121094 -13.164062 L 13.410156 -13.164062 L 13.410156 -8.046875 L 5.851562 -8.046875 L 5.851562 -11.945312 L 1.949219 -11.945312 L 1.949219 0 L 5.851562 0 L 5.851562 -4.144531 L 9.921875 -4.144531 C 11.140625 -2.753906 12.335938 -1.367188 13.578125 0 L 18.527344 0 C 17.285156 -1.367188 16.089844 -2.753906 14.871094 -4.144531 Z M 14.871094 -4.144531 "/></g></g></g><g fill="#ff0000" fill-opacity="1"><g transform="translate(54.496684, 19.426994)"><g><path d="M 16.820312 0 L 16.820312 -3.902344 L 5.851562 -3.902344 L 5.851562 -6.582031 L 14.382812 -6.582031 L 14.382812 -10.484375 L 5.851562 -10.484375 L 5.851562 -13.164062 L 16.820312 -13.164062 L 16.820312 -17.066406 L 0.121094 -17.066406 L 0.121094 -13.164062 L 1.949219 -13.164062 L 1.949219 0 Z M 16.820312 0 "/></g></g></g><g fill="#ff0000" fill-opacity="1"><g transform="translate(75.144133, 19.426994)"><g><path d="M 10.75 0 L 10.75 -13.164062 L 17.480469 -13.164062 L 17.480469 -17.066406 L 0.121094 -17.066406 L 0.121094 -13.164062 L 6.851562 -13.164062 L 6.851562 0 Z M 10.75 0 "/></g></g></g><g fill="#ff0000" fill-opacity="1"><g transform="translate(95.352813, 19.426994)"><g><path d="M 14.871094 -4.144531 L 17.308594 -6.582031 L 17.308594 -14.628906 L 14.871094 -17.066406 L 0.121094 -17.066406 L 0.121094 -13.164062 L 13.410156 -13.164062 L 13.410156 -8.046875 L 5.851562 -8.046875 L 5.851562 -11.945312 L 1.949219 -11.945312 L 1.949219 0 L 5.851562 0 L 5.851562 -4.144531 L 9.921875 -4.144531 C 11.140625 -2.753906 12.335938 -1.367188 13.578125 0 L 18.527344 0 C 17.285156 -1.367188 16.089844 -2.753906 14.871094 -4.144531 Z M 14.871094 -4.144531 "/></g></g></g><g fill="#ff0000" fill-opacity="1"><g transform="translate(116.731543, 19.426994)"><g><path d="M 16.578125 0 L 19.015625 -2.4375 L 19.015625 -14.628906 L 16.578125 -17.066406 L 3.65625 -17.066406 L 1.21875 -14.628906 L 1.21875 -2.4375 L 3.65625 0 Z M 15.117188 -3.902344 L 5.121094 -3.902344 L 5.121094 -13.164062 L 15.117188 -13.164062 Z M 15.117188 -3.902344 "/></g></g></g><g fill="#00ffff" fill-opacity="1"><g transform="translate(35.538213, 19.129824)"><g><path d="M 14.871094 -4.144531 L 17.308594 -6.582031 L 17.308594 -14.628906 L 14.871094 -17.066406 L 0.121094 -17.066406 L 0.121094 -13.164062 L 13.410156 -13.164062 L 13.410156 -8.046875 L 5.851562 -8.046875 L 5.851562 -11.945312 L 1.949219 -11.945312 L 1.949219 0 L 5.851562 0 L 5.851562 -4.144531 L 9.921875 -4.144531 C 11.140625 -2.753906 12.335938 -1.367188 13.578125 0 L 18.527344 0 C 17.285156 -1.367188 16.089844 -2.753906 14.871094 -4.144531 Z M 14.871094 -4.144531 "/></g></g></g><g fill="#00ffff" fill-opacity="1"><g transform="translate(56.916945, 19.129824)"><g><path d="M 16.820312 0 L 16.820312 -3.902344 L 5.851562 -3.902344 L 5.851562 -6.582031 L 14.382812 -6.582031 L 14.382812 -10.484375 L 5.851562 -10.484375 L 5.851562 -13.164062 L 16.820312 -13.164062 L 16.820312 -17.066406 L 0.121094 -17.066406 L 0.121094 -13.164062 L 1.949219 -13.164062 L 1.949219 0 Z M 16.820312 0 "/></g></g></g><g fill="#00ffff" fill-opacity="1"><g transform="translate(77.564393, 19.129824)"><g><path d="M 10.75 0 L 10.75 -13.164062 L 17.480469 -13.164062 L 17.480469 -17.066406 L 0.121094 -17.066406 L 0.121094 -13.164062 L 6.851562 -13.164062 L 6.851562 0 Z M 10.75 0 "/></g></g></g><g fill="#00ffff" fill-opacity="1"><g transform="translate(97.773073, 19.129824)"><g><path d="M 14.871094 -4.144531 L 17.308594 -6.582031 L 17.308594 -14.628906 L 14.871094 -17.066406 L 0.121094 -17.066406 L 0.121094 -13.164062 L 13.410156 -13.164062 L 13.410156 -8.046875 L 5.851562 -8.046875 L 5.851562 -11.945312 L 1.949219 -11.945312 L 1.949219 0 L 5.851562 0 L 5.851562 -4.144531 L 9.921875 -4.144531 C 11.140625 -2.753906 12.335938 -1.367188 13.578125 0 L 18.527344 0 C 17.285156 -1.367188 16.089844 -2.753906 14.871094 -4.144531 Z M 14.871094 -4.144531 "/></g></g></g><g fill="#00ffff" fill-opacity="1"><g transform="translate(119.151804, 19.129824)"><g><path d="M 16.578125 0 L 19.015625 -2.4375 L 19.015625 -14.628906 L 16.578125 -17.066406 L 3.65625 -17.066406 L 1.21875 -14.628906 L 1.21875 -2.4375 L 3.65625 0 Z M 15.117188 -3.902344 L 5.121094 -3.902344 L 5.121094 -13.164062 L 15.117188 -13.164062 Z M 15.117188 -3.902344 "/></g></g></g><g fill="#ffffff" fill-opacity="1"><g transform="translate(34.328082, 19.278409)"><g><path d="M 14.871094 -4.144531 L 17.308594 -6.582031 L 17.308594 -14.628906 L 14.871094 -17.066406 L 0.121094 -17.066406 L 0.121094 -13.164062 L 13.410156 -13.164062 L 13.410156 -8.046875 L 5.851562 -8.046875 L 5.851562 -11.945312 L 1.949219 -11.945312 L 1.949219 0 L 5.851562 0 L 5.851562 -4.144531 L 9.921875 -4.144531 C 11.140625 -2.753906 12.335938 -1.367188 13.578125 0 L 18.527344 0 C 17.285156 -1.367188 16.089844 -2.753906 14.871094 -4.144531 Z M 14.871094 -4.144531 "/></g></g></g><g fill="#ffffff" fill-opacity="1"><g transform="translate(55.706814, 19.278409)"><g><path d="M 16.820312 0 L 16.820312 -3.902344 L 5.851562 -3.902344 L 5.851562 -6.582031 L 14.382812 -6.582031 L 14.382812 -10.484375 L 5.851562 -10.484375 L 5.851562 -13.164062 L 16.820312 -13.164062 L 16.820312 -17.066406 L 0.121094 -17.066406 L 0.121094 -13.164062 L 1.949219 -13.164062 L 1.949219 0 Z M 16.820312 0 "/></g></g></g><g fill="#ffffff" fill-opacity="1"><g transform="translate(76.354263, 19.278409)"><g><path d="M 10.75 0 L 10.75 -13.164062 L 17.480469 -13.164062 L 17.480469 -17.066406 L 0.121094 -17.066406 L 0.121094 -13.164062 L 6.851562 -13.164062 L 6.851562 0 Z M 10.75 0 "/></g></g></g><g fill="#ffffff" fill-opacity="1"><g transform="translate(96.562943, 19.278409)"><g><path d="M 14.871094 -4.144531 L 17.308594 -6.582031 L 17.308594 -14.628906 L 14.871094 -17.066406 L 0.121094 -17.066406 L 0.121094 -13.164062 L 13.410156 -13.164062 L 13.410156 -8.046875 L 5.851562 -8.046875 L 5.851562 -11.945312 L 1.949219 -11.945312 L 1.949219 0 L 5.851562 0 L 5.851562 -4.144531 L 9.921875 -4.144531 C 11.140625 -2.753906 12.335938 -1.367188 13.578125 0 L 18.527344 0 C 17.285156 -1.367188 16.089844 -2.753906 14.871094 -4.144531 Z M 14.871094 -4.144531 "/></g></g></g><g fill="#ffffff" fill-opacity="1"><g transform="translate(117.941673, 19.278409)"><g><path d="M 16.578125 0 L 19.015625 -2.4375 L 19.015625 -14.628906 L 16.578125 -17.066406 L 3.65625 -17.066406 L 1.21875 -14.628906 L 1.21875 -2.4375 L 3.65625 0 Z M 15.117188 -3.902344 L 5.121094 -3.902344 L 5.121094 -13.164062 L 15.117188 -13.164062 Z M 15.117188 -3.902344 "/></g></g></g><g fill="#ff0000" fill-opacity="1"><g transform="translate(16.874966, 40.929834)"><g><path d="M 18.308594 0 L 14.3125 -8.53125 L 18.308594 -17.066406 L 14.019531 -17.066406 L 10.921875 -10.484375 L 5.851562 -10.484375 L 5.851562 -17.066406 L 0.121094 -17.066406 L 0.121094 -13.164062 L 1.949219 -13.164062 L 1.949219 0 L 5.851562 0 L 5.851562 -6.582031 L 10.972656 -6.582031 L 14.019531 0 Z M 18.308594 0 "/></g></g></g><g fill="#ff0000" fill-opacity="1"><g transform="translate(38.521841, 40.929834)"><g><path d="M 20.550781 0 L 12.578125 -17.066406 L 4.535156 -17.066406 L 4.535156 -13.164062 L 6.363281 -13.164062 L 0.242188 0 L 4.511719 0 L 5.875 -2.925781 L 14.894531 -2.925781 L 16.285156 0 Z M 13.066406 -6.828125 L 7.679688 -6.828125 L 10.289062 -13.238281 L 10.457031 -13.238281 Z M 13.066406 -6.828125 "/></g></g></g><g fill="#ff0000" fill-opacity="1"><g transform="translate(61.923795, 40.929834)"><g><path d="M 14.871094 -4.144531 L 17.308594 -6.582031 L 17.308594 -14.628906 L 14.871094 -17.066406 L 0.121094 -17.066406 L 0.121094 -13.164062 L 13.410156 -13.164062 L 13.410156 -8.046875 L 5.851562 -8.046875 L 5.851562 -11.945312 L 1.949219 -11.945312 L 1.949219 0 L 5.851562 0 L 5.851562 -4.144531 L 9.921875 -4.144531 C 11.140625 -2.753906 12.335938 -1.367188 13.578125 0 L 18.527344 0 C 17.285156 -1.367188 16.089844 -2.753906 14.871094 -4.144531 Z M 14.871094 -4.144531 "/></g></g></g><g fill="#ff0000" fill-opacity="1"><g transform="translate(83.302529, 40.929834)"><g><path d="M 10.75 0 L 10.75 -13.164062 L 17.480469 -13.164062 L 17.480469 -17.066406 L 0.121094 -17.066406 L 0.121094 -13.164062 L 6.851562 -13.164062 L 6.851562 0 Z M 10.75 0 "/></g></g></g><g fill="#ff0000" fill-opacity="1"><g transform="translate(103.511206, 40.929834)"><g><path d="M 5.121094 0 L 5.121094 -17.066406 L 1.21875 -17.066406 L 1.21875 0 Z M 5.121094 0 "/></g></g></g><g fill="#ff0000" fill-opacity="1"><g transform="translate(112.45812, 40.929834)"><g><path d="M 17.308594 0 L 17.308594 -17.066406 L 13.410156 -17.066406 L 13.410156 -6.582031 L 5.851562 -17.066406 L 0.121094 -17.066406 L 0.121094 -13.164062 L 1.949219 -13.164062 L 1.949219 0 L 5.851562 0 L 5.851562 -10.457031 L 13.410156 0 Z M 17.308594 0 "/></g></g></g><g fill="#ff0000" fill-opacity="1"><g transform="translate(133.593096, 40.929834)"><g><path d="M 15.96875 0 L 18.40625 -2.4375 L 18.40625 -10.484375 L 10.363281 -10.484375 L 10.363281 -6.582031 L 14.507812 -6.582031 L 14.507812 -3.902344 L 5.121094 -3.902344 L 5.121094 -13.164062 L 16.578125 -13.164062 L 16.578125 -17.066406 L 3.65625 -17.066406 L 1.21875 -14.628906 L 1.21875 -2.4375 L 3.65625 0 Z M 15.96875 0 "/></g></g></g><g fill="#00ffff" fill-opacity="1"><g transform="translate(19.295227, 40.632663)"><g><path d="M 18.308594 0 L 14.3125 -8.53125 L 18.308594 -17.066406 L 14.019531 -17.066406 L 10.921875 -10.484375 L 5.851562 -10.484375 L 5.851562 -17.066406 L 0.121094 -17.066406 L 0.121094 -13.164062 L 1.949219 -13.164062 L 1.949219 0 L 5.851562 0 L 5.851562 -6.582031 L 10.972656 -6.582031 L 14.019531 0 Z M 18.308594 0 "/></g></g></g><g fill="#00ffff" fill-opacity="1"><g transform="translate(40.942102, 40.632663)"><g><path d="M 20.550781 0 L 12.578125 -17.066406 L 4.535156 -17.066406 L 4.535156 -13.164062 L 6.363281 -13.164062 L 0.242188 0 L 4.511719 0 L 5.875 -2.925781 L 14.894531 -2.925781 L 16.285156 0 Z M 13.066406 -6.828125 L 7.679688 -6.828125 L 10.289062 -13.238281 L 10.457031 -13.238281 Z M 13.066406 -6.828125 "/></g></g></g><g fill="#00ffff" fill-opacity="1"><g transform="translate(64.344056, 40.632663)"><g><path d="M 14.871094 -4.144531 L 17.308594 -6.582031 L 17.308594 -14.628906 L 14.871094 -17.066406 L 0.121094 -17.066406 L 0.121094 -13.164062 L 13.410156 -13.164062 L 13.410156 -8.046875 L 5.851562 -8.046875 L 5.851562 -11.945312 L 1.949219 -11.945312 L 1.949219 0 L 5.851562 0 L 5.851562 -4.144531 L 9.921875 -4.144531 C 11.140625 -2.753906 12.335938 -1.367188 13.578125 0 L 18.527344 0 C 17.285156 -1.367188 16.089844 -2.753906 14.871094 -4.144531 Z M 14.871094 -4.144531 "/></g></g></g><g fill="#00ffff" fill-opacity="1"><g transform="translate(85.722789, 40.632663)"><g><path d="M 10.75 0 L 10.75 -13.164062 L 17.480469 -13.164062 L 17.480469 -17.066406 L 0.121094 -17.066406 L 0.121094 -13.164062 L 6.851562 -13.164062 L 6.851562 0 Z M 10.75 0 "/></g></g></g><g fill="#00ffff" fill-opacity="1"><g transform="translate(105.931467, 40.632663)"><g><path d="M 5.121094 0 L 5.121094 -17.066406 L 1.21875 -17.066406 L 1.21875 0 Z M 5.121094 0 "/></g></g></g><g fill="#00ffff" fill-opacity="1"><g transform="translate(114.878381, 40.632663)"><g><path d="M 17.308594 0 L 17.308594 -17.066406 L 13.410156 -17.066406 L 13.410156 -6.582031 L 5.851562 -17.066406 L 0.121094 -17.066406 L 0.121094 -13.164062 L 1.949219 -13.164062 L 1.949219 0 L 5.851562 0 L 5.851562 -10.457031 L 13.410156 0 Z M 17.308594 0 "/></g></g></g><g fill="#00ffff" fill-opacity="1"><g transform="translate(136.013356, 40.632663)"><g><path d="M 15.96875 0 L 18.40625 -2.4375 L 18.40625 -10.484375 L 10.363281 -10.484375 L 10.363281 -6.582031 L 14.507812 -6.582031 L 14.507812 -3.902344 L 5.121094 -3.902344 L 5.121094 -13.164062 L 16.578125 -13.164062 L 16.578125 -17.066406 L 3.65625 -17.066406 L 1.21875 -14.628906 L 1.21875 -2.4375 L 3.65625 0 Z M 15.96875 0 "/></g></g></g><g fill="#ffffff" fill-opacity="1"><g transform="translate(18.085097, 40.781249)"><g><path d="M 18.308594 0 L 14.3125 -8.53125 L 18.308594 -17.066406 L 14.019531 -17.066406 L 10.921875 -10.484375 L 5.851562 -10.484375 L 5.851562 -17.066406 L 0.121094 -17.066406 L 0.121094 -13.164062 L 1.949219 -13.164062 L 1.949219 0 L 5.851562 0 L 5.851562 -6.582031 L 10.972656 -6.582031 L 14.019531 0 Z M 18.308594 0 "/></g></g></g><g fill="#ffffff" fill-opacity="1"><g transform="translate(39.731971, 40.781249)"><g><path d="M 20.550781 0 L 12.578125 -17.066406 L 4.535156 -17.066406 L 4.535156 -13.164062 L 6.363281 -13.164062 L 0.242188 0 L 4.511719 0 L 5.875 -2.925781 L 14.894531 -2.925781 L 16.285156 0 Z M 13.066406 -6.828125 L 7.679688 -6.828125 L 10.289062 -13.238281 L 10.457031 -13.238281 Z M 13.066406 -6.828125 "/></g></g></g><g fill="#ffffff" fill-opacity="1"><g transform="translate(63.133925, 40.781249)"><g><path d="M 14.871094 -4.144531 L 17.308594 -6.582031 L 17.308594 -14.628906 L 14.871094 -17.066406 L 0.121094 -17.066406 L 0.121094 -13.164062 L 13.410156 -13.164062 L 13.410156 -8.046875 L 5.851562 -8.046875 L 5.851562 -11.945312 L 1.949219 -11.945312 L 1.949219 0 L 5.851562 0 L 5.851562 -4.144531 L 9.921875 -4.144531 C 11.140625 -2.753906 12.335938 -1.367188 13.578125 0 L 18.527344 0 C 17.285156 -1.367188 16.089844 -2.753906 14.871094 -4.144531 Z M 14.871094 -4.144531 "/></g></g></g><g fill="#ffffff" fill-opacity="1"><g transform="translate(84.512659, 40.781249)"><g><path d="M 10.75 0 L 10.75 -13.164062 L 17.480469 -13.164062 L 17.480469 -17.066406 L 0.121094 -17.066406 L 0.121094 -13.164062 L 6.851562 -13.164062 L 6.851562 0 Z M 10.75 0 "/></g></g></g><g fill="#ffffff" fill-opacity="1"><g transform="translate(104.721336, 40.781249)"><g><path d="M 5.121094 0 L 5.121094 -17.066406 L 1.21875 -17.066406 L 1.21875 0 Z M 5.121094 0 "/></g></g></g><g fill="#ffffff" fill-opacity="1"><g transform="translate(113.668251, 40.781249)"><g><path d="M 17.308594 0 L 17.308594 -17.066406 L 13.410156 -17.066406 L 13.410156 -6.582031 L 5.851562 -17.066406 L 0.121094 -17.066406 L 0.121094 -13.164062 L 1.949219 -13.164062 L 1.949219 0 L 5.851562 0 L 5.851562 -10.457031 L 13.410156 0 Z M 17.308594 0 "/></g></g></g><g fill="#ffffff" fill-opacity="1"><g transform="translate(134.803226, 40.781249)"><g><path d="M 15.96875 0 L 18.40625 -2.4375 L 18.40625 -10.484375 L 10.363281 -10.484375 L 10.363281 -6.582031 L 14.507812 -6.582031 L 14.507812 -3.902344 L 5.121094 -3.902344 L 5.121094 -13.164062 L 16.578125 -13.164062 L 16.578125 -17.066406 L 3.65625 -17.066406 L 1.21875 -14.628906 L 1.21875 -2.4375 L 3.65625 0 Z M 15.96875 0 "/></g></g></g><g fill="#ff0000" fill-opacity="1"><g transform="translate(57.945854, 62.432674)"><g/></g></g><g fill="#00ffff" fill-opacity="1"><g transform="translate(60.366114, 62.135503)"><g/></g></g><g fill="#ffffff" fill-opacity="1"><g transform="translate(59.155984, 62.284088)"><g/></g></g><g fill="#ff0000" fill-opacity="1"><g transform="translate(70.296084, 62.432674)"><g><path d="M 18.40625 0 L 18.40625 -3.902344 L 8.3125 -3.902344 L 18.40625 -11.945312 L 18.40625 -14.628906 L 15.96875 -17.066406 L 3.65625 -17.066406 L 1.21875 -14.628906 L 1.21875 -10.726562 L 5.121094 -10.726562 L 5.121094 -13.164062 L 13.652344 -13.164062 L 1.828125 -3.902344 L 1.828125 0 Z M 18.40625 0 "/></g></g></g><g fill="#ff0000" fill-opacity="1"><g transform="translate(92.527985, 62.432674)"><g><path d="M 18.40625 0 L 18.40625 -3.902344 L 8.3125 -3.902344 L 18.40625 -11.945312 L 18.40625 -14.628906 L 15.96875 -17.066406 L 3.65625 -17.066406 L 1.21875 -14.628906 L 1.21875 -10.726562 L 5.121094 -10.726562 L 5.121094 -13.164062 L 13.652344 -13.164062 L 1.828125 -3.902344 L 1.828125 0 Z M 18.40625 0 "/></g></g></g><g fill="#00ffff" fill-opacity="1"><g transform="translate(72.716345, 62.135503)"><g><path d="M 18.40625 0 L 18.40625 -3.902344 L 8.3125 -3.902344 L 18.40625 -11.945312 L 18.40625 -14.628906 L 15.96875 -17.066406 L 3.65625 -17.066406 L 1.21875 -14.628906 L 1.21875 -10.726562 L 5.121094 -10.726562 L 5.121094 -13.164062 L 13.652344 -13.164062 L 1.828125 -3.902344 L 1.828125 0 Z M 18.40625 0 "/></g></g></g><g fill="#00ffff" fill-opacity="1"><g transform="translate(94.948245, 62.135503)"><g><path d="M 18.40625 0 L 18.40625 -3.902344 L 8.3125 -3.902344 L 18.40625 -11.945312 L 18.40625 -14.628906 L 15.96875 -17.066406 L 3.65625 -17.066406 L 1.21875 -14.628906 L 1.21875 -10.726562 L 5.121094 -10.726562 L 5.121094 -13.164062 L 13.652344 -13.164062 L 1.828125 -3.902344 L 1.828125 0 Z M 18.40625 0 "/></g></g></g><g fill="#ffffff" fill-opacity="1"><g transform="translate(71.506214, 62.284088)"><g><path d="M 18.40625 0 L 18.40625 -3.902344 L 8.3125 -3.902344 L 18.40625 -11.945312 L 18.40625 -14.628906 L 15.96875 -17.066406 L 3.65625 -17.066406 L 1.21875 -14.628906 L 1.21875 -10.726562 L 5.121094 -10.726562 L 5.121094 -13.164062 L 13.652344 -13.164062 L 1.828125 -3.902344 L 1.828125 0 Z M 18.40625 0 "/></g></g></g><g fill="#ffffff" fill-opacity="1"><g transform="translate(93.738115, 62.284088)"><g><path d="M 18.40625 0 L 18.40625 -3.902344 L 8.3125 -3.902344 L 18.40625 -11.945312 L 18.40625 -14.628906 L 15.96875 -17.066406 L 3.65625 -17.066406 L 1.21875 -14.628906 L 1.21875 -10.726562 L 5.121094 -10.726562 L 5.121094 -13.164062 L 13.652344 -13.164062 L 1.828125 -3.902344 L 1.828125 0 Z M 18.40625 0 "/></g></g></g></svg>